<svg width="32" height="32" viewBox="0 0 32 32" fill="none" xmlns="http://www.w3.org/2000/svg">
<path d="M4.30771 0C2.61121 0 1.23077 1.38044 1.23077 3.07694C1.23077 4.77344 2.61115 6.15387 4.30771 6.15387C6.00421 6.15387 7.38465 4.7735 7.38465 3.07694C7.38465 1.38044 6.00421 0 4.30771 0ZM4.30771 4.92306C3.28971 4.92306 2.46159 4.09494 2.46159 3.07694C2.46159 2.05894 3.28971 1.23081 4.30771 1.23081C5.32577 1.23081 6.1539 2.05894 6.1539 3.07694C6.1539 4.09494 5.32577 4.92306 4.30771 4.92306Z" fill="#3b82f6"/>
<path d="M25.8461 22.1539C23.1316 22.1539 20.9231 24.3624 20.9231 27.0769C20.9231 29.7915 23.1316 32 25.8461 32C28.5607 32 30.7692 29.7915 30.7692 27.0769C30.7693 24.3624 28.5607 22.1539 25.8461 22.1539ZM25.8461 30.7692C23.8101 30.7692 22.1538 29.113 22.1538 27.0769C22.1538 25.0409 23.8101 23.3846 25.8461 23.3846C27.8822 23.3846 29.5384 25.0409 29.5384 27.0769C29.5384 29.113 27.8823 30.7692 25.8461 30.7692Z" fill="#3b82f6"/>
<path d="M17.8461 1.84613C12.0775 1.84613 7.38455 6.53907 7.38455 12.3077C7.38455 18.0763 12.0775 22.7693 17.8461 22.7693C23.6147 22.7693 28.3077 18.0764 28.3077 12.3077C28.3077 6.53901 23.6148 1.84613 17.8461 1.84613ZM17.8461 21.5384C12.756 21.5384 8.61536 17.3978 8.61536 12.3077C8.61536 7.21757 12.756 3.07694 17.8461 3.07694C22.9362 3.07694 27.0769 7.21757 27.0769 12.3077C27.0769 17.3979 22.9363 21.5384 17.8461 21.5384Z" fill="#3b82f6"/>
<path d="M17.8461 5.53845C14.1136 5.53845 11.0769 8.57514 11.0769 12.3077C11.0769 12.6478 11.3521 12.9231 11.6922 12.9231C12.0324 12.9231 12.3076 12.6478 12.3076 12.3077C12.3076 9.25364 14.792 6.76927 17.8461 6.76927C18.1862 6.76927 18.4614 6.49402 18.4614 6.15389C18.4616 5.8137 18.1863 5.53845 17.8461 5.53845Z" fill="#3b82f6"/>
<path d="M14.851 23.6328C14.5523 23.4687 14.1785 23.5787 14.0156 23.8768C12.9339 25.8504 10.8642 27.0769 8.6154 27.0769C5.22234 27.0769 2.46152 24.3161 2.46152 20.9231C2.46152 18.4651 3.92002 16.2458 6.17784 15.2704C6.48977 15.1358 6.6334 14.7734 6.49877 14.4616C6.36415 14.1491 6.00059 14.0066 5.6899 14.1406C2.98077 15.3113 1.23077 17.9736 1.23077 20.9231C1.23077 24.9952 4.54327 28.3077 8.6154 28.3077C11.3137 28.3077 13.7969 26.8366 15.095 24.4681C15.2585 24.1701 15.149 23.7962 14.851 23.6328Z" fill="#3b82f6"/>
<path d="M8.61538 24.6154C6.57932 24.6154 4.92307 22.9591 4.92307 20.9231C4.92307 20.5829 4.64782 20.3077 4.3077 20.3077C3.96757 20.3077 3.69232 20.5829 3.69232 20.9231C3.69232 23.6376 5.90082 25.8461 8.61538 25.8461C8.95551 25.8461 9.23076 25.5709 9.23076 25.2307C9.23076 24.8906 8.95551 24.6154 8.61538 24.6154Z" fill="#3b82f6"/>
</svg>

